# xmcd
#
# Track frame offsets:
#	150
#	8934
#	16784
#	27950
#	35961
#	49989
#	63881
#	74748
#	88579
#	97301
#	111556
#	125276
#	133241
#	144221
#	158262
#	168889
#	177818
#	192135
#	202221
#	213187
#	222441
#	229853
#	237334
#
# Disc length: 3280 seconds
#
# Revision: 1
# Processed by: cddbd v1.4PL0 Copyright (c) Steve Scherf et al.
# Submitted via: audiograbber 1.82.02
#
DISCID=500cce17
DTITLE=George Morgan - Candy Kisses Are Best Of All
DYEAR=2000
DGENRE=Country
TTITLE0=Candy Kisses
TTITLE1=Stay Away From Me Baby
TTITLE2=What's Gona Happen To Me
TTITLE3=Have You Ever Been Lonely
TTITLE4=Molly Darlin'
TTITLE5=Up And Down My Heartstring (featuring Simon Crum)
TTITLE6=Take A Look At Yourself
TTITLE7=A Boy And A Girl
TTITLE8=There Goes My Love
TTITLE9=The Best Of All
TTITLE10=Please Don't Let Me Love You
TTITLE11=(There'll Be) Peace In The Valley
TTITLE12=When A Man Gets The Blues
TTITLE13=Almost
TTITLE14=The Old Rugged Cross
TTITLE15=I Can't Go On This Way
TTITLE16=I'd Trade All Of My Tomorrows (For Just One Yesterday)
TTITLE17=When You're A Long Way From Home
TTITLE18=Billy Bayou
TTITLE19=I'm In Love Again
TTITLE20=Hang Your Head In Shame
TTITLE21=Panhandle Rag (Featuring Don Davis and The Candy Kids)
TTITLE22=Candy Kisses #2
EXTD=
EXTT0=
EXTT1=
EXTT2=
EXTT3=
EXTT4=
EXTT5=
EXTT6=
EXTT7=
EXTT8=
EXTT9=
EXTT10=
EXTT11=
EXTT12=
EXTT13=
EXTT14=
EXTT15=
EXTT16=
EXTT17=
EXTT18=
EXTT19=
EXTT20=
EXTT21=
EXTT22=
PLAYORDER=
